PathFileType	4	(X/Y/Z)	C:\Users\Basilio\Documents\Thesis Gigler\squatting_fais\c3dfiles\039\SJ_pre1\markers_experimental.trc
DataRate	CameraRate	NumFrames	NumMarkers	Units	OrigDataRate	OrigDataStartFrame	OrigNumFrames
200.000000	200.000000	4	61	mm	200.000000	1393	1858
Frame#	Time	FHD			LBHD			RBHD			C7			T10			CLAV			LSHO			LUUPA			LMUPA			LDUPA			LLEP			LMEP			LRAD			LUL			LRFIN			RSHO			RUPA1			RMUPA			RDUPA			RLEP			RMEP			RRAD			RUL			RUFIN			LASI			RASI			USACR			LSACR			RSACR			LTHI1			LTHI2			LTHI3			LTHI4			LLFC			LMFC			LTIB1			LTIB2			LTIB3			LTIB4			LLMAL			LMMAL			LHEE			LMT1			LMT2			LMT5			RTHI			RTHI2			RTHI3			RTHI4			RLFC			RMFC			RTIB1			RTIB2			RTIB3			RTIB4			RLMAL			RMMAL			RHEE			RMT1			RMT2			RMT5			
		X1	Y1	Z1	X2	Y2	Z2	X3	Y3	Z3	X4	Y4	Z4	X5	Y5	Z5	X6	Y6	Z6	X7	Y7	Z7	X8	Y8	Z8	X9	Y9	Z9	X10	Y10	Z10	X11	Y11	Z11	X12	Y12	Z12	X13	Y13	Z13	X14	Y14	Z14	X15	Y15	Z15	X16	Y16	Z16	X17	Y17	Z17	X18	Y18	Z18	X19	Y19	Z19	X20	Y20	Z20	X21	Y21	Z21	X22	Y22	Z22	X23	Y23	Z23	X24	Y24	Z24	X25	Y25	Z25	X26	Y26	Z26	X27	Y27	Z27	X28	Y28	Z28	X29	Y29	Z29	X30	Y30	Z30	X31	Y31	Z31	X32	Y32	Z32	X33	Y33	Z33	X34	Y34	Z34	X35	Y35	Z35	X36	Y36	Z36	X37	Y37	Z37	X38	Y38	Z38	X39	Y39	Z39	X40	Y40	Z40	X41	Y41	Z41	X42	Y42	Z42	X43	Y43	Z43	X44	Y44	Z44	X45	Y45	Z45	X46	Y46	Z46	X47	Y47	Z47	X48	Y48	Z48	X49	Y49	Z49	X50	Y50	Z50	X51	Y51	Z51	X52	Y52	Z52	X53	Y53	Z53	X54	Y54	Z54	X55	Y55	Z55	X56	Y56	Z56	X57	Y57	Z57	X58	Y58	Z58	X59	Y59	Z59	X60	Y60	Z60	X61	Y61	Z61	

1394	6.965	-182.5586853027344	1715.197143554688	-881.2009887695315	-303.9782409667969	1634.008666992188	-1018.624816894531	-297.4384155273438	1644.404907226563	-877.867370605469	-310.6919860839844	1492.859008789063	-963.667907714844	-308.5448303222657	1176.130737304688	-968.9234619140627	-153.6199493408203	1443.615478515625	-945.8194580078127	-193.8479156494141	1493.67138671875	-1137.882690429688	-265.7329711914063	1359.342651367188	-1310.361938476563	-226.5921325683594	1326.876953125	-1313.798461914063	-263.1152038574219	1306.840209960938	-1357.629272460938	-254.3475494384766	1240.321899414063	-1386.693359375	-335.8732299804688	1223.653442382813	-1355.17919921875	-272.5101928710938	1013.121826171875	-1200.043212890625	-225.9544372558594	983.5400390625002	-1252.401733398438	-224.4999694824219	1011.96337890625	-1150.409545898438	-218.424545288086	1483.578125	-759.8374633789064	-357.5207214355469	1358.934692382813	-633.0018920898439	-327.2535400390626	1326.25830078125	-609.6448364257814	-380.3547058105469	1309.155883789063	-588.3264770507814	-376.2037048339844	1245.27685546875	-553.7115478515626	-440.2929992675782	1225.828247070313	-612.2272949218751	-287.4294433593751	1044.472778320313	-756.6726074218751	-280.3681945800782	995.738220214844	-697.7231445312501	-227.8859100341797	1020.078796386719	-796.135681152344	-149.2228393554688	989.473571777344	-1072.90576171875	-162.1699523925782	971.127624511719	-860.4647216796877	-330.8123474121094	1055.794921875	-969.981384277344	-338.2800598144532	1026.69482421875	-999.216491699219	-343.4212341308594	1025.214599609375	-940.958679199219	-195.0529479980469	711.1865844726564	-1165.686645507813	-149.6894683837891	639.0469360351564	-1171.63134765625	-103.003158569336	649.1844482421876	-1172.01416015625	-166.7339477539063	582.5847167968751	-1157.269775390625	-146.7426147460938	466.9165649414064	-1153.826416015625	-103.1452255249024	441.2638549804689	-1044.44873046875	-133.9618835449219	315.6293640136719	-1123.131225585938	-213.4485931396485	301.9115295410157	-1159.228637695313	-176.4958801269532	286.0571899414063	-1144.111572265625	-210.6854858398438	215.3137207031251	-1095.3212890625	-347.4459533691407	92.4445266723633	-1107.166137695313	-322.0626831054688	88.34212493896486	-1022.010803222656	-423.6910400390626	41.35825347900391	-1059.254516601563	-190.2256164550782	51.92471313476564	-1087.724975585938	-202.1594390869141	51.09614562988283	-1128.81689453125	-254.9405212402344	30.26141929626466	-1173.537231445313	-199.6365509033204	726.5447998046876	-749.9206542968751	-150.9102478027344	683.4122924804689	-731.2604370117189	-119.4207611083985	691.9766845703126	-734.0628662109376	-159.8386840820313	598.5936279296876	-727.7490234375001	-167.772201538086	466.9160461425782	-727.1293334960939	-120.7009735107422	435.7213745117189	-828.0373535156252	-191.0358581542969	261.6309814453126	-715.3239746093751	-296.1114501953126	230.5070343017579	-709.9869995117189	-256.3268737792969	206.9180145263672	-704.2252197265626	-254.6725616455079	152.2547607421875	-731.8601684570314	-353.0278625488282	90.59323120117189	-704.3406372070314	-315.4136047363282	88.38394165039064	-787.2349243164065	-422.3596191406251	41.96836471557618	-750.5460205078126	-189.820556640625	49.0077362060547	-719.0791625976564	-201.0719299316407	54.47108078002931	-674.4662475585939	-259.1569824218751	29.01503944396973	-627.3374633789064	
1395	6.97	-182.4789123535157	1711.315551757813	-882.055603027344	-303.5960693359376	1629.69677734375	-1019.516540527344	-297.2102050781251	1640.535522460938	-878.4866333007815	-310.6364440917969	1488.5	-964.1412353515627	-305.3223571777344	1171.59033203125	-968.530456542969	-153.2447509765625	1438.762329101563	-946.6619262695315	-194.8527984619141	1488.384765625	-1139.15185546875	-267.8586120605469	1354.14599609375	-1310.876342773438	-228.4965515136719	1321.619506835938	-1314.8359375	-265.5088195800782	1301.713500976563	-1358.265747070313	-256.4327392578126	1235.203979492188	-1387.210571289063	-337.4105834960938	1218.118530273438	-1355.409301757813	-273.4412841796876	1007.719604492188	-1201.019287109375	-226.3275756835938	978.2482910156252	-1253.264282226563	-225.6758422851563	1007.562072753906	-1151.466918945313	-218.0787048339844	1478.838745117188	-760.4101562500001	-357.5562438964844	1354.503051757813	-633.7420654296876	-327.1563720703126	1321.852416992188	-609.9598388671876	-380.3568115234376	1304.821533203125	-588.8559570312501	-375.9969787597657	1241.057983398438	-553.5328369140626	-439.7796020507814	1221.111450195313	-612.3457641601564	-287.0624389648438	1040.098754882813	-757.1646728515626	-280.0652770996094	991.2820434570315	-697.8726806640626	-228.1662139892579	1015.823181152344	-796.8298950195315	-150.5108489990235	985.5129394531252	-1073.525390625	-163.1902313232422	966.891784667969	-861.6822509765627	-332.0996704101563	1053.11279296875	-970.904235839844	-339.6595153808594	1023.531982421875	-1000.037963867188	-345.0450134277344	1022.157409667969	-942.0198974609377	-194.3392639160157	706.1145019531251	-1164.037963867188	-148.8514099121094	634.4891967773439	-1169.525268554688	-102.2862014770508	644.5280151367189	-1169.764038085938	-165.453598022461	577.8962402343751	-1153.088134765625	-144.8524627685547	463.5659484863282	-1149.984008789063	-102.8210754394532	437.567352294922	-1040.09716796875	-130.5403594970703	313.7085571289063	-1119.552001953125	-210.1536712646485	301.3052978515626	-1156.318969726563	-173.8179931640625	284.7668762207032	-1142.401123046875	-209.121810913086	214.073226928711	-1093.116455078125	-347.8871765136719	93.34316253662111	-1106.81201171875	-322.7095642089844	88.61606597900392	-1021.6201171875	-424.0599060058595	41.26627731323243	-1059.55078125	-190.5369262695313	51.81110000610353	-1087.26513671875	-202.4859924316407	51.18393325805665	-1128.45166015625	-255.3578338623047	30.79310607910157	-1173.407958984375	-199.0338439941407	722.9061279296876	-750.8560791015626	-149.9548645019532	680.3645019531251	-732.3941040039064	-118.5384750366211	688.9485473632814	-735.3876953125001	-158.41064453125	595.3994140625001	-729.0933227539064	-165.5094757080078	464.5596923828126	-729.3147583007814	-119.9833908081055	432.798797607422	-829.0095825195315	-188.942123413086	259.9005126953126	-715.7816772460939	-294.5870056152344	230.7591400146485	-709.4717407226564	-254.9098663330079	207.1501464843751	-703.8358154296876	-254.6277770996094	151.8633117675782	-731.1676025390626	-353.1071166992188	90.88136291503908	-704.1075439453126	-315.8147583007813	88.47885131835939	-787.2210693359377	-422.4229736328126	41.52853393554688	-750.2739257812501	-189.9432678222657	48.99086761474611	-719.0328369140626	-201.1462402343751	54.47259521484376	-674.4954223632814	-259.1307983398438	29.03651428222657	-627.2703247070314	
1396	6.975000000000001	-182.230712890625	1708.750366210938	-883.122985839844	-303.6956176757813	1626.289794921875	-1019.993530273438	-296.6971740722657	1637.448974609375	-879.1519165039065	-310.4629516601563	1484.962524414063	-964.8771972656252	-307.6222229003907	1169.253173828125	-969.8240356445315	-152.8079986572266	1435.507934570313	-947.7022705078127	-195.7615814208985	1483.991577148438	-1140.55517578125	-269.5761718750001	1349.535766601563	-1311.73046875	-230.4775848388672	1317.215942382813	-1315.665893554688	-267.4936218261719	1297.40869140625	-1359.10302734375	-257.9450683593751	1230.892211914063	-1388.430541992188	-339.1455078125001	1213.56982421875	-1355.746337890625	-275.3529968261719	1003.071533203125	-1202.607055664063	-226.6888732910157	973.8384399414065	-1254.171264648438	-226.9294128417969	1003.803283691406	-1152.778564453125	-217.7854766845704	1474.733032226563	-760.8909912109376	-357.6841735839844	1350.384643554688	-634.4459838867189	-327.0477600097657	1318.265869140625	-610.4246215820314	-380.0152282714844	1301.167358398438	-589.2521362304689	-375.5852050781251	1237.469116210938	-553.9859008789064	-439.3008117675782	1217.299194335938	-612.3712768554689	-287.5456542968751	1036.671630859375	-757.5347900390626	-279.5863037109376	987.6965942382815	-698.2821044921876	-228.707260131836	1012.569213867188	-797.7419433593752	-152.0762939453125	982.6779785156252	-1074.183715820313	-164.4190368652344	963.7803344726565	-863.1770019531252	-333.3723754882813	1050.495727539063	-971.5572509765627	-342.2022705078126	1021.271484375	-1001.17626953125	-346.1343994140626	1020.019653320313	-942.3779907226565	-193.183334350586	703.2631225585939	-1161.98095703125	-146.8876190185547	631.8862304687501	-1166.707397460938	-99.94201660156253	641.8873291015626	-1166.873657226563	-162.8828582763672	575.4257202148439	-1149.25439453125	-141.0300445556641	462.286834716797	-1146.697509765625	-101.7989501953125	435.5804748535157	-1036.260864257813	-126.9566955566407	312.6369018554688	-1116.657592773438	-206.1947937011719	301.1010742187501	-1155.302001953125	-172.1470642089844	283.6697692871094	-1136.594970703125	-206.5475311279297	213.5974578857422	-1091.94775390625	-347.3406677246094	94.14434814453126	-1107.401733398438	-322.2132263183594	89.18837738037111	-1022.129577636719	-423.5967407226564	41.96033477783204	-1060.085083007813	-189.988021850586	51.77345275878908	-1087.462524414063	-201.9750976562501	51.50376129150392	-1128.83544921875	-254.9526062011719	30.81145858764649	-1173.322387695313	-197.9089965820313	720.2861328125001	-752.1431274414064	-147.6897430419922	678.2156982421876	-733.7105102539064	-116.4148712158203	687.1785888671876	-737.2129516601564	-155.2100677490235	593.3684692382814	-730.3247070312501	-161.6216888427735	463.7672119140626	-730.5106201171876	-117.8690490722657	431.6989746093751	-830.2237548828127	-186.3834686279297	259.7389221191407	-716.5687866210939	-291.9750366210938	231.4270477294922	-708.5388793945314	-252.4419708251954	207.0067138671876	-703.9879760742189	-253.4076690673829	152.301986694336	-730.6204833984376	-352.2792358398438	92.09654235839845	-703.6187744140626	-314.9287719726563	89.22631835937501	-786.9976196289065	-421.9924621582032	42.71138763427735	-749.8527221679689	-189.2193756103516	48.74604797363283	-719.0010986328126	-200.5467224121094	54.48190689086915	-674.3013916015626	-258.8504638671876	29.28214836120606	-627.3820800781251	
1397	6.98	-182.0678100585938	1707.165161132813	-884.058532714844	-302.9641113281251	1623.894897460938	-1020.5927734375	-296.0021667480469	1635.066528320313	-879.9849243164065	-310.2674255371094	1482.322875976563	-965.417663574219	-306.8982238769532	1167.282104492188	-969.9370117187502	-152.4715270996094	1432.754272460938	-948.372985839844	-196.7126007080079	1480.287231445313	-1141.860229492188	-271.3490905761719	1345.951171875	-1312.528076171875	-231.8989868164063	1313.678833007813	-1317.11376953125	-269.3546752929688	1293.812866210938	-1360.017944335938	-260.0146789550782	1227.388305664063	-1389.390991210938	-340.7953796386719	1209.885620117188	-1356.308227539063	-275.9672241210938	999.2483520507815	-1203.53173828125	-227.4649200439454	970.4719848632815	-1255.265991210938	-228.356674194336	1000.822021484375	-1154.00830078125	-217.5627441406251	1471.496337890625	-761.6823730468751	-357.3669433593751	1347.542846679688	-635.0899658203126	-326.7430419921876	1315.707275390625	-610.9392089843751	-379.5804443359376	1298.407592773438	-589.5850219726564	-374.9178771972657	1234.780517578125	-554.2712402343751	-438.8615112304689	1214.713256835938	-612.3418579101564	-287.8276367187501	1033.896484375	-758.0972900390626	-279.4329833984376	984.927185058594	-698.9827880859376	-229.2321472167969	1009.852233886719	-798.5120239257815	-153.4136505126953	980.594421386719	-1075.263671875	-165.6978454589844	961.5816650390627	-864.6462402343752	-334.7557067871094	1049.166748046875	-972.3841552734377	-342.7104797363282	1019.652526855469	-1001.432556152344	-347.6514587402344	1018.733032226563	-943.1738281250002	-190.6674499511719	701.0168457031251	-1160.4130859375	-142.4564971923828	631.0140991210939	-1164.319946289063	-95.75598144531251	641.5446166992189	-1163.21630859375	-157.4375915527344	573.9237060546876	-1147.701904296875	-134.6125030517578	462.345428466797	-1144.603881835938	-99.75421142578128	435.7508850097657	-1032.7802734375	-123.0963973999024	311.6834716796876	-1114.193725585938	-201.6747283935547	300.0635986328126	-1154.403564453125	-167.8850250244141	283.0292053222657	-1135.033813476563	-203.9429016113282	213.3929901123047	-1090.446411132813	-345.7792663574219	95.05867767333986	-1108.301025390625	-321.4382019042969	89.8962860107422	-1022.8154296875	-423.1649780273439	42.99629592895509	-1060.643798828125	-189.1176147460938	51.80529785156251	-1087.503784179688	-201.7355346679688	50.71986007690431	-1128.370849609375	-254.5840301513672	31.08202552795411	-1173.202392578125	-195.3920593261719	718.9338989257814	-753.1113281250001	-144.1461944580078	677.9047851562501	-735.2745971679689	-113.1160278320313	686.7569580078126	-739.1290893554689	-150.9295959472657	592.7404785156251	-731.2613525390626	-156.650863647461	463.5559997558595	-730.5248413085939	-114.6575393676758	431.9793090820314	-831.488220214844	-183.7825317382813	259.6124877929688	-717.0432739257814	-289.2589111328126	231.4808654785157	-708.6134033203126	-249.7961883544922	206.9088134765626	-704.6405029296876	-251.434799194336	152.6594390869141	-731.8194580078126	-350.8045654296876	93.2773895263672	-703.4833984375001	-313.9673767089844	89.79405975341798	-787.0830078125002	-421.3133239746095	44.03319931030274	-750.0017089843751	-188.2532958984375	48.99845504760744	-718.9772949218751	-200.1821441650391	54.13538360595705	-674.4717407226564	-258.5437011718751	29.66189002990723	-627.6980590820314	
